<?xml version="1.0" encoding="UTF-8" standalone="no"?>
<svg
   xmlns:dc="http://purl.org/dc/elements/1.1/"
   xmlns:cc="http://creativecommons.org/ns#"
   xmlns:rdf="http://www.w3.org/1999/02/22-rdf-syntax-ns#"
   xmlns:svg="http://www.w3.org/2000/svg"
   xmlns="http://www.w3.org/2000/svg"
   viewBox="0 0 381.66132 350.60934"
   height="350.60934"
   width="381.66132"
   xml:space="preserve"
   id="svg2"
   version="1.1"><metadata
     id="metadata8"><rdf:RDF><cc:Work
         rdf:about=""><dc:format>image/svg+xml</dc:format><dc:type
           rdf:resource="http://purl.org/dc/dcmitype/StillImage" /></cc:Work></rdf:RDF></metadata><defs
     id="defs6"><clipPath
       id="clipPath18"
       clipPathUnits="userSpaceOnUse"><path
         id="path16"
         d="M 0,262.957 H 286.246 V 0 H 0 Z" /></clipPath></defs><g
     transform="matrix(1.3333333,0,0,-1.3333333,0,350.60933)"
     id="g10"><g
       id="g12"><g
         clip-path="url(#clipPath18)"
         id="g14"><g
           transform="translate(155.8112,72.9207)"
           id="g20"><path
             id="path22"
             style="fill:#000000;fill-opacity:1;fill-rule:nonzero;stroke:none"
             d="M 0,0 -14.796,25.533 -10.34,32.222 8.207,0 Z m -15.049,-18.899 c -2.196,-2.061 -4.844,-3.091 -7.953,-3.091 -3.173,0 -5.875,1.012 -8.108,3.037 -2.223,2.033 -3.344,4.627 -3.344,7.809 0,2.024 0.407,3.715 1.22,5.061 l 10.232,17.426 10.131,-17.426 c 0.742,-1.283 1.112,-2.973 1.112,-5.061 0,-3.109 -1.093,-5.694 -3.29,-7.755 m -11.903,80.097 8.107,-14.389 -4.058,-6.896 c -5.061,8.577 -7.592,13.548 -7.592,14.895 0,3.046 1.175,5.17 3.543,6.39 M 37.382,7.393 C 36.099,4.085 35.159,2.124 34.544,1.518 33.469,0.506 31.336,0 28.163,0 H 25.325 L -1.518,46.601 c 9.047,14.191 13.575,25.434 13.575,33.74 0,6.436 -0.831,12.112 -2.513,17.019 -1.446,4.303 -3.552,8.026 -6.299,11.154 -3.046,3.443 -8.55,7.158 -16.522,11.144 -5.875,2.973 -8.813,6.037 -8.813,9.219 0,2.766 1.085,6.752 3.245,11.958 2.16,5.197 3.236,9.219 3.236,12.057 0,2.693 -0.705,4.998 -2.124,6.887 -1.618,2.16 -3.715,3.245 -6.282,3.245 -4.935,0 -7.393,-2.468 -7.393,-7.403 0,-4.926 2.458,-7.393 7.393,-7.393 1.962,0 3.787,0.741 5.468,2.232 -0.804,-2.368 -3.543,-6.281 -8.206,-11.758 -3.851,-4.456 -5.776,-8.948 -5.776,-13.477 0,-1.889 0.443,-4.085 1.32,-6.579 -12.428,-4.863 -22.759,-17.227 -31.001,-37.085 10.059,11.145 15.807,17.218 17.226,18.24 4.999,3.642 12.799,5.468 23.401,5.468 5.54,0 10.168,-2.639 13.882,-7.9 1.6,-2.331 2.802,-4.79 3.607,-7.375 0.84,-2.675 1.256,-5.486 1.256,-8.433 0,-7.501 -2.196,-14.488 -6.589,-20.977 l -12.156,20.977 c -7.9,-4.862 -13.034,-8.378 -15.402,-10.538 -5.332,-4.799 -7.999,-10.096 -7.999,-15.908 0,-3.985 1.682,-9.083 5.062,-15.301 2.901,-4.727 5.812,-9.491 8.713,-14.281 L -46.104,0 h -6.788 c -3.172,0 -5.64,2.458 -7.393,7.393 -1.618,-6.281 -3.173,-10.71 -4.664,-13.268 -2.296,-3.922 -5.839,-6.896 -10.638,-8.921 h 27.259 c 1.148,-6.417 4.049,-11.704 8.713,-15.853 4.655,-4.157 10.195,-6.236 16.613,-6.236 6.353,0 12.011,2.133 16.973,6.39 4.962,4.248 7.746,9.49 8.361,15.699 H 49.439 C 42.959,-7.637 38.937,-0.244 37.382,7.393" /></g><g
           transform="translate(130.5944,32.8359)"
           id="g24"><path
             id="path26"
             style="fill:#000000;fill-opacity:1;fill-rule:nonzero;stroke:none"
             d="m 0,0 v -13.015 c -0.307,0.018 -0.606,0.036 -0.904,0.072 -15.085,1.519 -26.889,14.29 -26.889,29.754 0,2.07 0.208,4.104 0.615,6.056 0.154,0.741 0.334,1.482 0.551,2.205 0.091,-0.75 0.217,-1.482 0.371,-2.205 C -23.662,10.737 -13.458,1.392 -0.904,0.09 -0.606,0.054 -0.307,0.027 0,0" /></g><g
           transform="translate(162.6171,49.6471)"
           id="g28"><path
             id="path30"
             style="fill:#000000;fill-opacity:1;fill-rule:nonzero;stroke:none"
             d="m 0,0 c 0,-16.007 -12.663,-29.13 -28.489,-29.872 -0.298,-0.018 -0.596,-0.027 -0.904,-0.027 v 13.025 c 0.299,0 0.606,0.009 0.904,0.027 13.278,0.641 24.25,10.258 26.952,22.903 0.154,0.723 0.281,1.455 0.371,2.205 C -0.949,7.538 -0.768,6.797 -0.615,6.056 -0.208,4.103 0,2.07 0,0" /></g></g></g></g></svg>