<svg width="203" height="16" viewBox="0 0 203 16" fill="none" xmlns="http://www.w3.org/2000/svg">
<path d="M0 13.6706L1.39309 12.9032C2.11933 13.9309 3.76363 14.6206 5.46275 14.6206C7.5638 14.6206 9.27661 13.7711 9.27661 12.5835C9.27661 11.2315 6.97916 10.5829 4.92835 10.0029C2.95975 9.42735 0.758208 8.70568 0.758208 6.84671C0.758208 4.98773 2.97802 3.61747 5.79617 3.61747C8.17584 3.61747 9.79731 4.59492 10.3957 5.78247L9.03454 6.4676C8.51841 5.56323 7.22124 4.95119 5.7779 4.95119C4.05595 4.95119 2.58065 5.80075 2.58065 6.87411C2.58065 8.03883 4.34371 8.4636 6.41279 9.05738C8.81987 9.78818 11.0991 10.624 11.0991 12.5561C11.0991 14.6297 8.54125 15.9772 5.45361 15.9772C2.81359 15.9772 0.762774 14.9495 0 13.666M27.7339 3.79104H29.5472V15.8127H27.7339V3.79104ZM53.3805 3.60377H53.1795L45.7619 15.8127H47.7213L48.8952 13.835H57.6557L58.8295 15.8127H60.8027L53.3759 3.60377H53.3805ZM49.6077 12.6566L53.2891 6.47217L56.9614 12.6566H49.6032H49.6077ZM51.1424 2.17871H49.6397L52.7547 0H53.8007L56.934 2.17871H55.4222L53.2846 0.707972L51.1424 2.17871ZM89.916 3.75907V16H89.8247L78.8261 6.84671V15.8264H77.0128V3.60377H77.1133L88.1027 12.7479V3.75907H89.916ZM106.72 9.80644C106.72 6.42649 110.461 3.61747 114.96 3.61747C117.02 3.63118 119.02 4.33915 120.473 5.43535L119.418 6.49957C118.262 5.61347 116.65 4.9923 114.887 4.9923C111.662 4.9923 108.547 7.07965 108.547 9.80189C108.547 12.5241 111.635 14.5978 114.919 14.5978C116.732 14.5978 118.271 13.9583 119.427 13.1042L120.473 14.1913C119.139 15.1824 117.339 15.9589 114.969 15.9589C110.511 15.9589 106.715 13.2092 106.715 9.79731M148.682 3.77734V15.799H146.877V10.4505H138.747V15.799H136.934V3.77734H138.747V9.10762H146.877V3.77734H148.682ZM168.144 5.11104V8.91579H174.744V10.2723H168.144V14.447H175.758V15.799H166.33V3.77734H175.758V5.11104H168.144ZM191.886 13.6523L193.279 12.885C194.005 13.9126 195.649 14.6023 197.348 14.6023C199.449 14.6023 201.162 13.7528 201.162 12.5652C201.162 11.2132 198.86 10.5647 196.814 9.98458C194.841 9.40908 192.644 8.68741 192.644 6.82843C192.644 4.96946 194.864 3.5992 197.682 3.5992C200.062 3.5992 201.683 4.57666 202.281 5.76421L200.92 6.44934C200.404 5.54497 199.107 4.93292 197.664 4.93292C195.942 4.93292 194.471 5.78247 194.471 6.85584C194.471 8.02055 196.234 8.44533 198.303 9.03911C200.71 9.76991 202.989 10.6058 202.989 12.5378C202.989 14.6115 200.431 15.9589 197.344 15.9589C194.708 15.9589 192.658 14.9312 191.89 13.6477" fill="#2D2D2D"/>
</svg>
